<svg
 xmlns="http://www.w3.org/2000/svg"
 xmlns:xlink="http://www.w3.org/1999/xlink"
 width="12px" height="22px">
<path fill-rule="evenodd"  fill="rgb(204, 204, 204)"
 d="M0.523,18.859 L8.381,11.002 L0.419,3.039 L0.420,3.039 C0.160,2.769 -0.001,2.403 -0.001,1.997 C-0.001,1.169 0.671,0.498 1.499,0.498 C1.904,0.498 2.270,0.657 2.541,0.919 L2.541,0.918 L11.541,9.918 L11.540,9.919 C11.823,10.191 11.999,10.574 11.999,10.998 C11.999,10.999 11.999,11.001 11.999,11.002 C11.999,11.003 11.999,11.004 11.999,11.005 C11.999,11.428 11.823,11.811 11.540,12.084 L11.541,12.084 L2.541,21.084 L2.537,21.081 C2.268,21.339 1.902,21.498 1.499,21.498 C0.671,21.498 -0.001,20.827 -0.001,19.998 C-0.001,19.543 0.202,19.135 0.523,18.859 Z"/>
</svg>
