<svg
 xmlns="http://www.w3.org/2000/svg"
 xmlns:xlink="http://www.w3.org/1999/xlink"
 width="12px" height="22px">
<path fill-rule="evenodd"  fill="rgb(204, 204, 204)"
 d="M11.477,18.859 L3.619,11.002 L11.581,3.039 L11.580,3.039 C11.839,2.769 12.000,2.403 12.000,1.997 C12.000,1.169 11.329,0.498 10.501,0.498 C10.096,0.498 9.730,0.657 9.459,0.919 L9.459,0.918 L0.459,9.918 L0.460,9.919 C0.177,10.191 0.001,10.574 0.001,10.998 C0.001,10.999 0.001,11.001 0.001,11.002 C0.001,11.003 0.001,11.004 0.001,11.005 C0.001,11.428 0.177,11.811 0.460,12.084 L0.459,12.084 L9.459,21.084 L9.462,21.081 C9.732,21.339 10.098,21.498 10.501,21.498 C11.329,21.498 12.000,20.827 12.000,19.998 C12.000,19.543 11.798,19.135 11.477,18.859 Z"/>
</svg>
