<svg
 xmlns="http://www.w3.org/2000/svg"
 xmlns:xlink="http://www.w3.org/1999/xlink">
<path fill-rule="evenodd"  fill="rgb(149, 225, 211)"
 d="M15.000,29.998 C6.716,29.998 0.000,23.283 0.000,14.998 C0.000,6.715 6.716,-0.002 15.000,-0.002 C23.284,-0.002 30.000,6.715 30.000,14.998 C30.000,23.283 23.284,29.998 15.000,29.998 ZM15.000,2.811 C8.269,2.811 2.813,8.266 2.813,14.998 C2.813,21.729 8.269,27.185 15.000,27.185 C21.731,27.185 27.188,21.729 27.188,14.998 C27.188,8.266 21.731,2.811 15.000,2.811 ZM15.000,23.904 C10.081,23.904 6.094,19.917 6.094,14.998 C6.094,10.080 10.081,6.092 15.000,6.092 C19.919,6.092 23.906,10.080 23.906,14.998 C23.906,19.917 19.919,23.904 15.000,23.904 ZM15.000,8.904 C11.634,8.904 8.906,11.633 8.906,14.998 C8.906,18.363 11.634,21.092 15.000,21.092 C18.365,21.092 21.094,18.363 21.094,14.998 C21.094,11.633 18.365,8.904 15.000,8.904 ZM15.000,17.811 C13.447,17.811 12.188,16.552 12.188,14.998 C12.188,13.445 13.447,12.186 15.000,12.186 C16.553,12.186 17.812,13.445 17.812,14.998 C17.812,16.552 16.553,17.811 15.000,17.811 Z"/>
</svg>
