<svg
 xmlns="http://www.w3.org/2000/svg"
 xmlns:xlink="http://www.w3.org/1999/xlink"
 width="30px" height="30px">
<path fill-rule="evenodd"  fill="rgb(255, 255, 255)"
 d="M30.000,23.999 C30.000,24.652 29.581,25.201 29.000,25.408 L29.000,27.091 C29.581,27.298 30.000,27.848 30.000,28.500 C30.000,29.328 29.328,29.999 28.500,29.999 C27.848,29.999 27.299,29.581 27.092,29.000 L25.408,29.000 C25.201,29.581 24.652,29.999 24.000,29.999 C23.348,29.999 22.798,29.581 22.592,29.000 L20.908,29.000 C20.701,29.581 20.152,29.999 19.500,29.999 C18.848,29.999 18.298,29.581 18.092,29.000 L16.408,29.000 C16.202,29.581 15.652,29.999 15.000,29.999 C14.348,29.999 13.798,29.581 13.592,29.000 L11.908,29.000 C11.701,29.581 11.152,29.999 10.500,29.999 C9.848,29.999 9.298,29.581 9.092,29.000 L7.408,29.000 C7.202,29.581 6.652,29.999 6.000,29.999 C5.348,29.999 4.798,29.581 4.592,29.000 L2.908,29.000 C2.701,29.581 2.152,29.999 1.500,29.999 C0.672,29.999 -0.000,29.328 -0.000,28.500 C-0.000,27.848 0.419,27.298 1.000,27.091 L1.000,25.408 C0.419,25.201 -0.000,24.652 -0.000,23.999 C-0.000,23.347 0.419,22.798 1.000,22.592 L1.000,20.908 C0.419,20.701 -0.000,20.151 -0.000,19.500 C-0.000,18.848 0.419,18.298 1.000,18.091 L1.000,16.408 C0.419,16.201 -0.000,15.652 -0.000,15.000 C-0.000,14.347 0.419,13.798 1.000,13.591 L1.000,11.907 C0.419,11.701 -0.000,11.152 -0.000,10.500 C-0.000,9.848 0.419,9.298 1.000,9.092 L1.000,7.408 C0.419,7.201 -0.000,6.652 -0.000,5.999 C-0.000,5.347 0.419,4.798 1.000,4.592 L1.000,2.908 C0.419,2.701 -0.000,2.151 -0.000,1.500 C-0.000,0.671 0.672,-0.000 1.500,-0.000 C2.152,-0.000 2.701,0.418 2.908,0.999 L4.592,0.999 C4.798,0.418 5.348,-0.000 6.000,-0.000 C6.652,-0.000 7.202,0.418 7.408,0.999 L9.092,0.999 C9.298,0.418 9.848,-0.000 10.500,-0.000 C11.152,-0.000 11.701,0.418 11.908,0.999 L13.592,0.999 C13.798,0.418 14.348,-0.000 15.000,-0.000 C15.652,-0.000 16.202,0.418 16.408,0.999 L18.092,0.999 C18.298,0.418 18.848,-0.000 19.500,-0.000 C20.152,-0.000 20.701,0.418 20.908,0.999 L22.592,0.999 C22.798,0.418 23.348,-0.000 24.000,-0.000 C24.652,-0.000 25.201,0.418 25.408,0.999 L27.092,0.999 C27.299,0.418 27.848,-0.000 28.500,-0.000 C29.328,-0.000 30.000,0.671 30.000,1.500 C30.000,2.151 29.581,2.701 29.000,2.908 L29.000,4.592 C29.581,4.798 30.000,5.347 30.000,5.999 C30.000,6.652 29.581,7.201 29.000,7.408 L29.000,9.092 C29.581,9.298 30.000,9.848 30.000,10.500 C30.000,11.152 29.581,11.701 29.000,11.907 L29.000,13.591 C29.581,13.798 30.000,14.347 30.000,15.000 C30.000,15.652 29.581,16.201 29.000,16.408 L29.000,18.091 C29.581,18.298 30.000,18.848 30.000,19.500 C30.000,20.151 29.581,20.701 29.000,20.908 L29.000,22.592 C29.581,22.798 30.000,23.347 30.000,23.999 ZM26.000,3.999 L4.000,3.999 L4.000,26.000 L26.000,26.000 L26.000,3.999 ZM13.000,20.000 L20.000,11.500 L24.500,18.499 L24.500,24.500 L5.500,24.500 L11.500,18.499 L13.000,20.000 ZM10.000,12.999 C8.343,12.999 7.000,11.657 7.000,10.000 C7.000,8.343 8.343,7.000 10.000,7.000 C11.657,7.000 13.000,8.343 13.000,10.000 C13.000,11.657 11.657,12.999 10.000,12.999 Z"/>
</svg>
